<?xml version="1.0" encoding="utf-8"?>
<!-- Generator: Adobe Illustrator 16.0.4, SVG Export Plug-In . SVG Version: 6.00 Build 0)  -->
<!DOCTYPE svg PUBLIC "-//W3C//DTD SVG 1.1//EN" "http://www.w3.org/Graphics/SVG/1.1/DTD/svg11.dtd">
<svg version="1.1" id="Layer_1" xmlns="http://www.w3.org/2000/svg" xmlns:xlink="http://www.w3.org/1999/xlink" x="0px" y="0px"
	 width="800px" height="300px" viewBox="0 0 800 300" enable-background="new 0 0 800 300" xml:space="preserve">
<g>
	<polygon fill="#004F90" points="115.7,68.2 61.2,122.8 115.7,177.5 170.3,122.8 	"/>
	<polygon fill="#004F90" points="228,68.2 173.5,122.8 228,177.5 282.6,122.8 	"/>
	<polygon fill="#004F90" points="171.9,124.8 117.3,179.4 171.9,234 226.5,179.4 	"/>
	<rect x="105.3" y="94" fill="#FFFFFF" width="8.9" height="8.9"/>
	<rect x="95.5" y="103.8" fill="#FFFFFF" width="8.9" height="8.9"/>
	<rect x="208.8" y="103.8" fill="#FFFFFF" width="8.9" height="8.9"/>
	<rect x="218.6" y="94" fill="#FFFFFF" width="8.9" height="8.9"/>
	<rect x="218.6" y="113.6" fill="#FFFFFF" width="8.9" height="8.9"/>
	<rect x="228.3" y="94" fill="#FFFFFF" width="8.9" height="8.9"/>
	<rect x="228.3" y="123.4" fill="#FFFFFF" width="8.9" height="8.9"/>
	<rect x="228.3" y="143" fill="#FFFFFF" width="8.9" height="8.9"/>
	<rect x="218.6" y="143" fill="#FFFFFF" width="8.9" height="8.9"/>
	<rect x="238.1" y="103.8" fill="#FFFFFF" width="8.9" height="8.9"/>
	<rect x="238.1" y="133.2" fill="#FFFFFF" width="8.9" height="8.9"/>
	<rect x="208.8" y="133.6" fill="#FFFFFF" width="8.9" height="8.9"/>
	<rect x="152.6" y="160.4" fill="#FFFFFF" width="8.9" height="8.9"/>
	<rect x="162.4" y="150.6" fill="#FFFFFF" width="8.9" height="8.9"/>
	<rect x="162.4" y="170.2" fill="#FFFFFF" width="8.9" height="8.9"/>
	<rect x="172.2" y="150.6" fill="#FFFFFF" width="8.9" height="8.9"/>
	<rect x="172.2" y="180" fill="#FFFFFF" width="8.9" height="8.9"/>
	<rect x="172.2" y="199.6" fill="#FFFFFF" width="8.9" height="8.9"/>
	<rect x="162.4" y="199.6" fill="#FFFFFF" width="8.9" height="8.9"/>
	<rect x="182" y="160.4" fill="#FFFFFF" width="8.9" height="8.9"/>
	<rect x="182" y="189.8" fill="#FFFFFF" width="8.9" height="8.9"/>
	<rect x="152.6" y="190.2" fill="#FFFFFF" width="8.9" height="8.9"/>
	<rect x="124.9" y="103.8" fill="#FFFFFF" width="8.9" height="8.9"/>
	<rect x="95.5" y="113.6" fill="#FFFFFF" width="8.9" height="8.9"/>
	<rect x="95.5" y="123.4" fill="#FFFFFF" width="8.9" height="8.9"/>
	<rect x="95.5" y="133.2" fill="#FFFFFF" width="8.9" height="8.9"/>
	<rect x="105.3" y="143" fill="#FFFFFF" width="8.9" height="8.9"/>
	<rect x="115.1" y="143" fill="#FFFFFF" width="8.9" height="8.9"/>
	<rect x="124.9" y="133.2" fill="#FFFFFF" width="8.9" height="8.9"/>
	<rect x="115.1" y="94" fill="#FFFFFF" width="8.9" height="8.9"/>
</g>
<g>
	<path fill="#004F90" d="M340.4,95.7c-5,0-9,2.1-11.8,6.2c-2.8,4.1-4.2,9.8-4.2,17.1c0,15.1,5.7,22.7,17.2,22.7
		c3.5,0,6.8-0.5,10.1-1.5c3.3-1,6.5-2.1,9.8-3.5v17.9c-6.6,2.9-14,4.3-22.2,4.3c-11.9,0-20.9-3.4-27.3-10.3
		c-6.3-6.9-9.5-16.8-9.5-29.8c0-8.1,1.5-15.3,4.6-21.4c3.1-6.2,7.5-10.9,13.2-14.2c5.7-3.3,12.5-5,20.3-5c8.5,0,16.6,1.8,24.3,5.5
		l-6.5,16.7c-2.9-1.4-5.8-2.5-8.7-3.4C346.8,96.1,343.7,95.7,340.4,95.7z"/>
	<path fill="#004F90" d="M427.5,134.1c0,4.9-1.2,9.2-3.7,13c-2.5,3.8-6,6.7-10.7,8.8c-4.7,2.1-10.1,3.1-16.4,3.1
		c-5.2,0-9.6-0.4-13.2-1.1c-3.5-0.7-7.2-2-11.1-3.8v-18.9c4,2.1,8.3,3.7,12.6,4.9c4.4,1.2,8.4,1.7,12,1.7c3.2,0,5.5-0.5,6.9-1.6
		c1.5-1.1,2.2-2.5,2.2-4.2c0-1.1-0.3-2-0.9-2.8c-0.6-0.8-1.5-1.6-2.8-2.4c-1.3-0.8-4.8-2.5-10.4-5c-5.1-2.3-9-4.6-11.5-6.8
		c-2.6-2.2-4.5-4.7-5.7-7.5c-1.2-2.8-1.9-6.2-1.9-10c0-7.2,2.6-12.9,7.9-16.9c5.3-4,12.5-6.1,21.7-6.1c8.1,0,16.4,1.9,24.9,5.6
		l-6.5,16.4c-7.3-3.4-13.7-5-19-5c-2.8,0-4.8,0.5-6,1.5c-1.3,1-1.9,2.2-1.9,3.6c0,1.5,0.8,2.9,2.4,4.1c1.6,1.2,5.9,3.4,13,6.7
		c6.8,3,11.5,6.3,14.1,9.8S427.5,128.8,427.5,134.1z"/>
	<path fill="#004F90" d="M491.7,134.1c0,4.9-1.2,9.2-3.7,13c-2.5,3.8-6,6.7-10.7,8.8c-4.7,2.1-10.1,3.1-16.4,3.1
		c-5.2,0-9.6-0.4-13.2-1.1c-3.5-0.7-7.2-2-11.1-3.8v-18.9c4,2.1,8.3,3.7,12.6,4.9c4.4,1.2,8.4,1.7,12,1.7c3.2,0,5.5-0.5,6.9-1.6
		c1.5-1.1,2.2-2.5,2.2-4.2c0-1.1-0.3-2-0.9-2.8c-0.6-0.8-1.5-1.6-2.8-2.4c-1.3-0.8-4.8-2.5-10.4-5c-5.1-2.3-9-4.6-11.5-6.8
		c-2.6-2.2-4.5-4.7-5.7-7.5c-1.2-2.8-1.9-6.2-1.9-10c0-7.2,2.6-12.9,7.9-16.9c5.3-4,12.5-6.1,21.7-6.1c8.1,0,16.4,1.9,24.9,5.6
		l-6.5,16.4c-7.3-3.4-13.7-5-19-5c-2.8,0-4.8,0.5-6,1.5c-1.3,1-1.9,2.2-1.9,3.6c0,1.5,0.8,2.9,2.4,4.1c1.6,1.2,5.9,3.4,13,6.7
		c6.8,3,11.5,6.3,14.1,9.8S491.7,128.8,491.7,134.1z"/>
	<path fill="#004F90" d="M530.4,159c-10,0-17.5-2.7-22.6-8.1c-5.1-5.4-7.7-13.1-7.7-23.2c0-10.1,2.8-17.9,8.3-23.5
		c5.6-5.6,13.4-8.3,23.7-8.3c7.1,0,13.7,1.5,19.9,4.6l-6.2,15.5c-2.5-1.1-4.9-2-7-2.7c-2.1-0.7-4.4-1-6.7-1c-3.4,0-6,1.3-7.9,4
		c-1.9,2.7-2.8,6.4-2.8,11.2c0,9.7,3.6,14.6,10.8,14.6c6.2,0,12.1-1.8,17.7-5.4v16.7C544.5,157.2,537.9,159,530.4,159z"/>
	<path fill="#004F90" d="M619,127.4c0,10-2.7,17.7-8,23.3c-5.4,5.6-12.8,8.4-22.5,8.4c-9.2,0-16.6-2.8-22.1-8.5
		c-5.5-5.7-8.2-13.4-8.2-23.1c0-9.9,2.7-17.6,8-23.1c5.4-5.5,12.9-8.2,22.5-8.2c6,0,11.3,1.3,15.8,3.8c4.6,2.5,8.1,6.2,10.6,10.9
		C617.8,115.5,619,121,619,127.4z M579.6,127.4c0,5.2,0.7,9.2,2.1,12c1.4,2.7,3.7,4.1,7,4.1c3.3,0,5.6-1.4,6.9-4.1
		c1.3-2.7,2-6.7,2-12c0-5.2-0.7-9.1-2-11.8c-1.4-2.6-3.7-4-7-4c-3.2,0-5.5,1.3-6.9,3.9C580.3,118.2,579.6,122.1,579.6,127.4z"/>
	<path fill="#004F90" d="M668.7,157.9v-33.2c0-4-0.6-7.1-1.7-9.2c-1.2-2.1-3-3.1-5.6-3.1c-3.5,0-6.1,1.4-7.7,4.2
		c-1.6,2.8-2.4,7.7-2.4,14.6v26.6h-21V97.1h15.8l2.6,7.5h1.2c1.8-2.9,4.3-5,7.4-6.4c3.2-1.4,6.8-2.1,10.9-2.1c6.7,0,12,2,15.7,5.9
		c3.7,3.9,5.6,9.4,5.6,16.5v39.6H668.7z"/>
	<path fill="#004F90" d="M740.2,112.8h-12.9v45.1h-21v-45.1h-8.1v-10.3l8.5-5.2v-1c0-8,1.6-13.8,4.9-17.3c3.3-3.5,8.5-5.3,15.8-5.3
		c2.8,0,5.4,0.2,7.9,0.6c2.5,0.4,5.4,1.2,8.7,2.3l-4.5,13.6c-2.6-0.7-5.1-1.1-7.6-1.1c-1.6,0-2.8,0.5-3.5,1.5
		c-0.7,1-1.1,2.6-1.1,4.8v1.6h12.9V112.8z"/>
</g>
<g>
	<path fill="#004F90" d="M351.6,228.5h-9.9l-24.4-39.5H317l0.2,2.2c0.3,4.2,0.5,8.1,0.5,11.5v25.8h-7.4v-49.6h9.8l24.3,39.3h0.2
		c0-0.5-0.1-2.4-0.3-5.7c-0.1-3.3-0.2-5.8-0.2-7.7v-26h7.4V228.5z"/>
	<path fill="#004F90" d="M397.1,209.6c0,6.1-1.6,10.9-4.7,14.4c-3.1,3.4-7.5,5.2-13.1,5.2c-3.5,0-6.6-0.8-9.3-2.4
		c-2.7-1.6-4.8-3.9-6.2-6.8c-1.4-3-2.2-6.4-2.2-10.3c0-6.1,1.6-10.8,4.7-14.3c3.1-3.4,7.5-5.1,13.2-5.1c5.4,0,9.7,1.7,12.9,5.2
		C395.5,199,397.1,203.7,397.1,209.6z M369.8,209.6c0,8.7,3.2,13,9.6,13c6.3,0,9.5-4.3,9.5-13c0-8.6-3.2-12.9-9.6-12.9
		c-3.3,0-5.8,1.1-7.3,3.3C370.6,202.3,369.8,205.5,369.8,209.6z"/>
	<path fill="#004F90" d="M425.3,190.2c1.6,0,2.9,0.1,4,0.3l-0.8,7.4c-1.1-0.3-2.3-0.4-3.5-0.4c-3.2,0-5.8,1-7.8,3.1
		c-2,2.1-3,4.8-3,8.1v19.6h-8v-37.5h6.2l1.1,6.6h0.4c1.2-2.2,2.9-4,4.9-5.3C420.9,190.9,423,190.2,425.3,190.2z"/>
	<path fill="#004F90" d="M448.9,229.1c-4.7,0-8.3-1.7-11-5.1c-2.6-3.4-3.9-8.2-3.9-14.3c0-6.2,1.3-10.9,4-14.4
		c2.7-3.4,6.3-5.1,11-5.1c4.9,0,8.7,1.8,11.3,5.5h0.4c-0.4-2.7-0.6-4.8-0.6-6.4v-13.7h8v52.8h-6.2l-1.4-4.9h-0.4
		C457.6,227.3,453.8,229.1,448.9,229.1z M451,222.7c3.3,0,5.7-0.9,7.2-2.8c1.5-1.8,2.3-4.8,2.3-9v-1.1c0-4.7-0.8-8.1-2.3-10.1
		c-1.5-2-3.9-3-7.2-3c-2.8,0-5,1.1-6.5,3.4c-1.5,2.3-2.3,5.5-2.3,9.7c0,4.2,0.7,7.3,2.2,9.5C445.9,221.6,448.1,222.7,451,222.7z"/>
	<path fill="#004F90" d="M479.1,181c0-1.4,0.4-2.5,1.2-3.3c0.8-0.8,1.9-1.2,3.3-1.2c1.4,0,2.5,0.4,3.3,1.2s1.2,1.9,1.2,3.3
		c0,1.4-0.4,2.4-1.2,3.2c-0.8,0.8-1.9,1.2-3.3,1.2c-1.4,0-2.6-0.4-3.3-1.2C479.5,183.4,479.1,182.3,479.1,181z M487.5,228.5h-8
		v-37.5h8V228.5z"/>
	<path fill="#004F90" d="M514,229.1c-5.7,0-10-1.7-12.9-5c-3-3.3-4.4-8.1-4.4-14.3c0-6.3,1.5-11.2,4.6-14.6
		c3.1-3.4,7.5-5.1,13.4-5.1c4,0,7.5,0.7,10.7,2.2l-2.4,6.4c-3.4-1.3-6.2-2-8.3-2c-6.5,0-9.7,4.3-9.7,12.9c0,4.2,0.8,7.4,2.4,9.5
		c1.6,2.1,4,3.2,7.1,3.2c3.6,0,6.9-0.9,10.1-2.6v7c-1.4,0.8-2.9,1.4-4.6,1.8C518.3,229,516.4,229.1,514,229.1z"/>
	<path fill="#004F90" d="M582.3,228.5h-33.6v-6l12.8-12.9c3.8-3.9,6.3-6.6,7.5-8.2c1.2-1.6,2.1-3.1,2.7-4.6c0.6-1.4,0.8-3,0.8-4.6
		c0-2.2-0.7-4-2-5.3c-1.3-1.3-3.2-1.9-5.6-1.9c-1.9,0-3.7,0.4-5.5,1.1c-1.8,0.7-3.8,2-6.2,3.8l-4.3-5.3c2.8-2.3,5.4-4,8-5
		c2.6-1,5.4-1.5,8.3-1.5c4.6,0,8.3,1.2,11.1,3.6c2.8,2.4,4.2,5.6,4.2,9.7c0,2.2-0.4,4.4-1.2,6.4s-2,4.1-3.7,6.2
		c-1.7,2.1-4.4,5-8.3,8.7l-8.6,8.3v0.3h23.5V228.5z"/>
	<path fill="#004F90" d="M622,203.7c0,8.6-1.4,15-4.2,19.2c-2.8,4.2-7,6.3-12.7,6.3c-5.5,0-9.7-2.2-12.6-6.5
		c-2.8-4.3-4.3-10.7-4.3-19c0-8.8,1.4-15.2,4.2-19.4c2.8-4.2,7-6.2,12.7-6.2c5.5,0,9.7,2.2,12.6,6.5
		C620.6,188.9,622,195.3,622,203.7z M596.4,203.7c0,6.8,0.7,11.6,2.1,14.5s3.6,4.3,6.7,4.3c3.1,0,5.3-1.5,6.7-4.4
		c1.4-2.9,2.1-7.7,2.1-14.4c0-6.7-0.7-11.5-2.1-14.4c-1.4-3-3.6-4.5-6.7-4.5c-3.1,0-5.3,1.5-6.7,4.4
		C597.1,192,596.4,196.9,596.4,203.7z"/>
	<path fill="#004F90" d="M651.5,228.5h-8v-32c0-3.8,0.1-6.9,0.3-9.1c-0.5,0.5-1.2,1.1-1.9,1.8c-0.8,0.7-3.3,2.7-7.6,6.2l-4-5.1
		l14.6-11.5h6.7V228.5z"/>
	<path fill="#004F90" d="M667.8,207.3c0-19.4,7.9-29.1,23.7-29.1c2.5,0,4.6,0.2,6.3,0.6v6.6c-1.7-0.5-3.7-0.7-6-0.7
		c-5.3,0-9.3,1.4-12,4.3c-2.7,2.9-4.1,7.4-4.3,13.7h0.4c1.1-1.8,2.6-3.3,4.5-4.3c1.9-1,4.2-1.5,6.8-1.5c4.5,0,8,1.4,10.5,4.1
		c2.5,2.8,3.8,6.5,3.8,11.2c0,5.2-1.5,9.3-4.4,12.3c-2.9,3-6.9,4.5-11.9,4.5c-3.6,0-6.6-0.9-9.3-2.6c-2.6-1.7-4.6-4.2-6.1-7.5
		S667.8,211.9,667.8,207.3z M685.2,222.6c2.7,0,4.8-0.9,6.3-2.6c1.5-1.8,2.2-4.3,2.2-7.6c0-2.9-0.7-5.1-2.1-6.7
		c-1.4-1.6-3.5-2.4-6.3-2.4c-1.7,0-3.3,0.4-4.8,1.1c-1.4,0.7-2.6,1.7-3.4,3c-0.8,1.3-1.3,2.6-1.3,3.9c0,3.2,0.9,5.9,2.6,8.1
		C680.2,221.5,682.5,222.6,685.2,222.6z"/>
</g>
</svg>
